<svg width="1440" height="1165" viewBox="0 0 1440 1165" fill="none" xmlns="http://www.w3.org/2000/svg">
<rect width="1440" height="1172" fill="#FAFAFA"/>
<g opacity="0.09">
<mask id="mask0_552_6845" style="mask-type:alpha" maskUnits="userSpaceOnUse" x="-2" y="0" width="1440" height="1165">
<rect x="-2" width="1440" height="1165" fill="#FAFAFA"/>
</mask>
<g mask="url(#mask0_552_6845)">
<line y1="-0.5" x2="3456.51" y2="-0.5" transform="matrix(0.866041 0.499972 -0.866041 0.499972 -2526.06 827.682)" stroke="black"/>
<line y1="-0.5" x2="3456.51" y2="-0.5" transform="matrix(-0.866041 0.499972 -0.866041 -0.499972 467.413 -856.32)" stroke="black"/>
<line y1="-0.5" x2="3456.51" y2="-0.5" transform="matrix(0.866041 0.499972 -0.866041 0.499972 -2317.71 707.398)" stroke="black"/>
<line y1="-0.5" x2="3456.51" y2="-0.5" transform="matrix(-0.866041 0.499972 -0.866041 -0.499972 675.77 -736.033)" stroke="black"/>
<line y1="-0.5" x2="3456.51" y2="-0.5" transform="matrix(0.866041 0.499972 -0.866041 0.499972 -2109.35 587.113)" stroke="black"/>
<line y1="-0.5" x2="3456.51" y2="-0.5" transform="matrix(-0.866041 0.499972 -0.866041 -0.499972 884.126 -615.746)" stroke="black"/>
<line y1="-0.5" x2="3456.51" y2="-0.5" transform="matrix(0.866041 0.499972 -0.866041 0.499972 -1900.99 466.826)" stroke="black"/>
<line y1="-0.5" x2="3456.51" y2="-0.5" transform="matrix(-0.866041 0.499972 -0.866041 -0.499972 1092.48 -495.459)" stroke="black"/>
<line y1="-0.5" x2="3456.51" y2="-0.5" transform="matrix(0.866041 0.499972 -0.866041 0.499972 -1692.64 346.543)" stroke="black"/>
<line y1="-0.5" x2="3456.51" y2="-0.5" transform="matrix(-0.866041 0.499972 -0.866041 -0.499972 1300.84 -375.174)" stroke="black"/>
<line y1="-0.5" x2="3456.51" y2="-0.5" transform="matrix(0.866041 0.499972 -0.866041 0.499972 -1484.28 226.252)" stroke="black"/>
<line y1="-0.5" x2="3456.51" y2="-0.5" transform="matrix(-0.866041 0.499972 -0.866041 -0.499972 1509.2 -254.891)" stroke="black"/>
<line y1="-0.5" x2="3456.51" y2="-0.5" transform="matrix(0.866041 0.499972 -0.866041 0.499972 -1275.92 105.969)" stroke="black"/>
<line y1="-0.5" x2="3456.51" y2="-0.5" transform="matrix(-0.866041 0.499972 -0.866041 -0.499972 1717.55 -134.604)" stroke="black"/>
<line y1="-0.5" x2="3456.51" y2="-0.5" transform="matrix(0.866041 0.499972 -0.866041 0.499972 -1067.57 -14.3184)" stroke="black"/>
<line y1="-0.5" x2="3456.51" y2="-0.5" transform="matrix(-0.866041 0.499972 -0.866041 -0.499972 1925.91 -14.3184)" stroke="black"/>
<line y1="-0.5" x2="3456.51" y2="-0.5" transform="matrix(0.866041 0.499972 -0.866041 0.499972 -859.213 -134.604)" stroke="black"/>
<line y1="-0.5" x2="3456.51" y2="-0.5" transform="matrix(-0.866041 0.499972 -0.866041 -0.499972 2134.27 105.971)" stroke="black"/>
<line y1="-0.5" x2="3456.51" y2="-0.5" transform="matrix(0.866041 0.499972 -0.866041 0.499972 -650.857 -254.891)" stroke="black"/>
<line y1="-0.5" x2="3456.51" y2="-0.5" transform="matrix(-0.866041 0.499972 -0.866041 -0.499972 2342.62 226.256)" stroke="black"/>
<line y1="-0.5" x2="3456.51" y2="-0.5" transform="matrix(0.866041 0.499972 -0.866041 0.499972 -442.5 -375.174)" stroke="black"/>
<line y1="-0.5" x2="3456.51" y2="-0.5" transform="matrix(-0.866041 0.499972 -0.866041 -0.499972 2550.98 346.543)" stroke="black"/>
<line y1="-0.5" x2="3456.51" y2="-0.5" transform="matrix(0.866041 0.499972 -0.866041 0.499972 -234.143 -495.459)" stroke="black"/>
<line y1="-0.5" x2="3456.51" y2="-0.5" transform="matrix(-0.866041 0.499972 -0.866041 -0.499972 2759.34 466.826)" stroke="black"/>
<line y1="-0.5" x2="3456.51" y2="-0.5" transform="matrix(0.866041 0.499972 -0.866041 0.499972 -25.786 -615.746)" stroke="black"/>
<line y1="-0.5" x2="3456.51" y2="-0.5" transform="matrix(-0.866041 0.499972 -0.866041 -0.499972 2967.69 587.113)" stroke="black"/>
<line y1="-0.5" x2="3456.51" y2="-0.5" transform="matrix(0.866041 0.499972 -0.866041 0.499972 182.571 -736.033)" stroke="black"/>
<line y1="-0.5" x2="3456.51" y2="-0.5" transform="matrix(-0.866041 0.499972 -0.866041 -0.499972 3176.05 707.4)" stroke="black"/>
<line y1="-0.5" x2="3456.51" y2="-0.5" transform="matrix(0.866041 0.499972 -0.866041 0.499972 390.927 -856.32)" stroke="black"/>
<line y1="-0.5" x2="3456.51" y2="-0.5" transform="matrix(-0.866041 0.499972 -0.866041 -0.499972 3384.41 827.688)" stroke="black"/>
</g>
</g>
<rect width="158.5" height="157.51" transform="matrix(0.866041 -0.499972 0.866041 0.499972 932 315.246)" fill="#E3F2FD"/>
<rect width="142.513" height="141.623" transform="matrix(0.866041 -0.499972 0.866041 0.499972 945.946 321.053)" fill="#90CAF9"/>
<rect width="188.803" height="187.623" transform="matrix(0.866041 -0.499972 0.866041 0.499972 1043 722.396)" fill="#EDE7F6"/>
<rect width="174.785" height="173.692" transform="matrix(0.866041 -0.499972 0.866041 0.499972 1055.06 729.361)" fill="#B39DDB"/>
<g filter="url(#filter0_d_552_6845)">
<path d="M834.526 648.088C834.575 641.101 829.707 632.567 823.647 629.033C820.478 627.176 817.619 627.094 815.593 628.414L808.145 632.583L823.745 659.392L831.128 655.222L831.112 655.206C833.203 654.115 834.51 651.655 834.526 648.088Z" fill="#212121"/>
<path d="M815.92 633.398C821.964 636.932 826.832 645.467 826.8 652.454C826.751 659.441 821.817 662.242 815.757 658.708C809.713 655.174 804.845 646.639 804.878 639.652C804.927 632.665 809.876 629.864 815.92 633.398Z" fill="#757575"/>
<path d="M812.147 643.903C812.163 641.166 813.846 639.929 815.888 641.118C817.929 642.307 819.579 645.499 819.563 648.235C819.547 650.971 817.864 652.209 815.822 651.02C813.764 649.815 812.114 646.623 812.147 643.903Z" fill="#212121"/>
<path opacity="0.15" d="M826.8 652.453C826.816 650.091 826.261 647.567 825.313 645.124L806.413 634.195C805.466 635.515 804.91 637.355 804.894 639.668C804.894 639.749 804.91 639.847 804.91 639.928L826.8 652.6C826.783 652.551 826.8 652.502 826.8 652.453Z" fill="black"/>
<path d="M756.313 707.682C752.164 707.91 747.949 707.242 744.682 705.597L641.704 646.443C635.481 643.316 628.489 635.205 628.064 627.534L624.895 554.389L630.629 554.063L633.798 627.208C634.092 632.436 639.581 638.967 644.285 641.329L747.263 700.483C752.033 702.877 760.103 702.405 764.546 699.49L833.219 660.043C834.869 658.968 835.8 657.681 835.735 656.606C835.67 655.531 834.641 654.424 832.909 653.56L722.662 589.748C716.455 586.637 709.496 578.51 709.055 570.822L707.519 530.252L713.253 529.926L714.788 570.497C715.082 575.725 720.555 582.272 725.227 584.618L835.474 648.43C839.149 650.27 841.289 653.056 841.469 656.28C841.648 659.473 839.786 662.583 836.372 664.831L767.698 704.278C764.627 706.281 760.495 707.438 756.313 707.682Z" fill="#757575"/>
<path d="M737.788 706.036C737.837 699.048 732.97 690.514 726.909 686.98C723.74 685.123 720.881 685.042 718.856 686.361L711.407 690.53L727.007 717.339L734.391 713.169L734.374 713.153C736.465 712.062 737.772 709.602 737.788 706.036Z" fill="#212121"/>
<path d="M719.199 691.345C725.243 694.88 730.111 703.414 730.078 710.401C730.029 717.388 725.096 720.19 719.035 716.655C712.991 713.121 708.123 704.587 708.156 697.6C708.205 690.612 713.138 687.811 719.199 691.345Z" fill="#757575"/>
<path d="M715.409 701.85C715.425 699.114 717.108 697.876 719.15 699.065C721.192 700.254 722.842 703.446 722.825 706.182C722.809 708.918 721.126 710.156 719.084 708.967C717.026 707.762 715.393 704.57 715.409 701.85Z" fill="#212121"/>
<path d="M661.731 662.307C661.797 655.32 656.929 646.77 650.901 643.235C647.732 641.379 644.873 641.281 642.848 642.6L635.399 646.753L650.95 673.594L658.333 669.441L658.317 669.425C660.392 668.334 661.699 665.874 661.731 662.307Z" fill="#212121"/>
<path d="M643.158 647.585C649.202 651.136 654.054 659.67 653.988 666.657C653.939 673.644 648.99 676.446 642.946 672.895C636.902 669.345 632.05 660.81 632.115 653.823C632.181 646.836 637.114 644.051 643.158 647.585Z" fill="#757575"/>
<path d="M639.352 658.072C639.369 655.336 641.051 654.098 643.093 655.303C645.135 656.508 646.785 659.684 646.752 662.42C646.736 665.157 645.053 666.395 643.011 665.189C640.969 664 639.336 660.808 639.352 658.072Z" fill="#212121"/>
<path d="M612.677 465.753C610.488 458.668 613.787 449.531 620.011 445.459L688.472 406.875C694.696 402.803 701.508 405.637 703.697 412.722L708.451 428.081L703.746 430.817L698.666 415.296C697.457 411.533 693.765 410.247 690.465 412.429L623.785 450.019C619.799 452.658 617.643 458.554 618.982 463.114L623.001 477.854L617.398 481.111L612.677 465.753Z" fill="#757575"/>
<path d="M718.513 539.76L626.545 592.709L760.952 670.072L852.92 617.123L718.513 539.76Z" fill="#27DEBF"/>
<path opacity="0.5" d="M718.513 539.76L626.545 592.709L760.952 670.072L852.92 617.123L718.513 539.76Z" fill="black"/>
<path d="M617.414 481.111L708.434 428.08L718.513 539.76L626.545 592.709L617.414 481.111Z" fill="url(#paint0_linear_552_6845)"/>
<path d="M870 539.759L852.92 617.123L718.513 539.759L708.434 428.096L870 539.759Z" fill="url(#paint1_linear_552_6845)"/>
<rect width="84.3766" height="115.967" transform="matrix(0.866041 -0.499972 0.866041 0.499972 642.74 553.426)" fill="#2196F3"/>
<path d="M763.071 592.708L760.952 670.071L626.545 592.708L616.819 479.506L763.071 592.708Z" fill="url(#paint2_linear_552_6845)"/>
<path d="M763.071 593.334L870 538.145L852.919 617.138L760.952 670.071L763.071 593.334Z" fill="#90CAF9"/>
<rect width="26.9258" height="26.7576" transform="matrix(0.866041 -0.499972 0.866041 0.499972 430.703 609.275)" fill="#EDE7F6"/>
<rect width="24.9267" height="24.7709" transform="matrix(0.866041 -0.499972 0.866041 0.499972 432.197 610.139)" fill="#B39DDB"/>
<rect width="26.998" height="26.8293" transform="matrix(0.866041 -0.499972 0.866041 0.499972 639 729.498)" fill="#E3F2FD"/>
<rect width="24.2748" height="24.1231" transform="matrix(0.866041 -0.499972 0.866041 0.499972 641.327 730.879)" fill="#90CAF9"/>
</g>
<rect width="26.9258" height="26.7576" transform="matrix(0.866041 -0.499972 0.866041 0.499972 1032 502.463)" fill="#EDE7F6"/>
<rect width="24.9267" height="24.7709" transform="matrix(0.866041 -0.499972 0.866041 0.499972 1033.72 503.455)" fill="#B39DDB"/>
<defs>
<filter id="filter0_d_552_6845" x="366.703" y="405" width="567.297" height="465.939" filterUnits="userSpaceOnUse" color-interpolation-filters="sRGB">
<feFlood flood-opacity="0" result="BackgroundImageFix"/>
<feColorMatrix in="SourceAlpha" type="matrix" values="0 0 0 0 0 0 0 0 0 0 0 0 0 0 0 0 0 0 127 0" result="hardAlpha"/>
<feOffset dy="64"/>
<feGaussianBlur stdDeviation="32"/>
<feColorMatrix type="matrix" values="0 0 0 0 0.129412 0 0 0 0 0.588235 0 0 0 0 0.952941 0 0 0 0.2 0"/>
<feBlend mode="normal" in2="BackgroundImageFix" result="effect1_dropShadow_552_6845"/>
<feBlend mode="normal" in="SourceGraphic" in2="effect1_dropShadow_552_6845" result="shape"/>
</filter>
<linearGradient id="paint0_linear_552_6845" x1="667.963" y1="428.08" x2="667.963" y2="592.709" gradientUnits="userSpaceOnUse">
<stop stop-color="#2196F3"/>
<stop offset="1" stop-color="#E3F2FD"/>
</linearGradient>
<linearGradient id="paint1_linear_552_6845" x1="791.287" y1="428.096" x2="791.287" y2="617.123" gradientUnits="userSpaceOnUse">
<stop stop-color="#2196F3"/>
<stop offset="1" stop-color="#E3F2FD"/>
</linearGradient>
<linearGradient id="paint2_linear_552_6845" x1="690.242" y1="481.109" x2="690.242" y2="670.071" gradientUnits="userSpaceOnUse">
<stop stop-color="#2196F3"/>
<stop offset="1" stop-color="#90CAF9"/>
</linearGradient>
</defs>
</svg>
